<mxfile host="app.diagrams.net" modified="2023-11-22T08:01:18.972Z" agent="Mozilla/5.0 (Windows NT 10.0; Win64; x64) AppleWebKit/537.36 (KHTML, like Gecko) Chrome/118.0.0.0 Whale/3.23.214.10 Safari/537.36" etag="F5lSlqH7Hdf144HNRyvW" version="22.1.3" type="device">
  <diagram id="C5RBs43oDa-KdzZeNtuy" name="Page-1">
    <mxGraphModel dx="2135" dy="1348" grid="1" gridSize="10" guides="1" tooltips="1" connect="1" arrows="1" fold="1" page="1" pageScale="1" pageWidth="827" pageHeight="1169" math="0" shadow="0">
      <root>
        <mxCell id="WIyWlLk6GJQsqaUBKTNV-0" />
        <mxCell id="WIyWlLk6GJQsqaUBKTNV-1" parent="WIyWlLk6GJQsqaUBKTNV-0" />
        <mxCell id="CDUhiBHqFqVTl0LIPG0b-124" value="" style="whiteSpace=wrap;html=1;aspect=fixed;fillColor=#FF3333;" vertex="1" parent="WIyWlLk6GJQsqaUBKTNV-1">
          <mxGeometry x="760" y="680" width="620" height="620" as="geometry" />
        </mxCell>
        <mxCell id="CDUhiBHqFqVTl0LIPG0b-123" value="" style="whiteSpace=wrap;html=1;aspect=fixed;fillColor=#CCFF99;" vertex="1" parent="WIyWlLk6GJQsqaUBKTNV-1">
          <mxGeometry x="760" y="150" width="530" height="530" as="geometry" />
        </mxCell>
        <mxCell id="WIyWlLk6GJQsqaUBKTNV-2" value="" style="rounded=0;html=1;jettySize=auto;orthogonalLoop=1;fontSize=11;endArrow=block;endFill=0;endSize=8;strokeWidth=1;shadow=0;labelBackgroundColor=none;edgeStyle=orthogonalEdgeStyle;" parent="WIyWlLk6GJQsqaUBKTNV-1" source="WIyWlLk6GJQsqaUBKTNV-3" target="WIyWlLk6GJQsqaUBKTNV-6" edge="1">
          <mxGeometry relative="1" as="geometry" />
        </mxCell>
        <mxCell id="WIyWlLk6GJQsqaUBKTNV-3" value="시작" style="rounded=1;whiteSpace=wrap;html=1;fontSize=12;glass=0;strokeWidth=1;shadow=0;" parent="WIyWlLk6GJQsqaUBKTNV-1" vertex="1">
          <mxGeometry x="170" y="10" width="62.5" height="40" as="geometry" />
        </mxCell>
        <mxCell id="CDUhiBHqFqVTl0LIPG0b-27" value="No" style="edgeStyle=orthogonalEdgeStyle;rounded=0;orthogonalLoop=1;jettySize=auto;html=1;entryX=0.75;entryY=0;entryDx=0;entryDy=0;" edge="1" parent="WIyWlLk6GJQsqaUBKTNV-1" source="WIyWlLk6GJQsqaUBKTNV-6">
          <mxGeometry relative="1" as="geometry">
            <mxPoint x="191.1899774943736" y="220.0345161290322" as="sourcePoint" />
            <mxPoint x="210.28" y="284.97" as="targetPoint" />
            <Array as="points">
              <mxPoint x="211" y="220" />
              <mxPoint x="210" y="220" />
            </Array>
          </mxGeometry>
        </mxCell>
        <mxCell id="CDUhiBHqFqVTl0LIPG0b-29" value="Yes" style="edgeStyle=orthogonalEdgeStyle;rounded=0;orthogonalLoop=1;jettySize=auto;html=1;entryX=0;entryY=0.5;entryDx=0;entryDy=0;" edge="1" parent="WIyWlLk6GJQsqaUBKTNV-1" source="WIyWlLk6GJQsqaUBKTNV-6" target="CDUhiBHqFqVTl0LIPG0b-23">
          <mxGeometry x="-0.9644" y="-10" relative="1" as="geometry">
            <mxPoint y="1070" as="targetPoint" />
            <Array as="points">
              <mxPoint x="30" y="1040" />
            </Array>
            <mxPoint as="offset" />
          </mxGeometry>
        </mxCell>
        <mxCell id="WIyWlLk6GJQsqaUBKTNV-6" value="계정이 있고 자신의 아이디와 비밀번호를 입력할 수 있는가?" style="rhombus;whiteSpace=wrap;html=1;shadow=0;fontFamily=Helvetica;fontSize=12;align=center;strokeWidth=1;spacing=6;spacingTop=-4;" parent="WIyWlLk6GJQsqaUBKTNV-1" vertex="1">
          <mxGeometry x="20" y="61.25" width="420" height="107.5" as="geometry" />
        </mxCell>
        <mxCell id="CDUhiBHqFqVTl0LIPG0b-1" value="" style="edgeStyle=orthogonalEdgeStyle;rounded=0;orthogonalLoop=1;jettySize=auto;html=1;" edge="1" parent="WIyWlLk6GJQsqaUBKTNV-1" source="WIyWlLk6GJQsqaUBKTNV-7" target="CDUhiBHqFqVTl0LIPG0b-0">
          <mxGeometry relative="1" as="geometry">
            <Array as="points">
              <mxPoint x="70" y="205" />
            </Array>
          </mxGeometry>
        </mxCell>
        <mxCell id="WIyWlLk6GJQsqaUBKTNV-7" value="새 계정 만들기&lt;br&gt;자신의 아이디와 비번을 만들기" style="rounded=1;whiteSpace=wrap;html=1;fontSize=12;glass=0;strokeWidth=1;shadow=0;" parent="WIyWlLk6GJQsqaUBKTNV-1" vertex="1">
          <mxGeometry x="109" y="270" width="120" height="50" as="geometry" />
        </mxCell>
        <mxCell id="CDUhiBHqFqVTl0LIPG0b-2" value="Yes" style="edgeStyle=orthogonalEdgeStyle;rounded=0;orthogonalLoop=1;jettySize=auto;html=1;entryX=1;entryY=0.5;entryDx=0;entryDy=0;" edge="1" parent="WIyWlLk6GJQsqaUBKTNV-1" source="CDUhiBHqFqVTl0LIPG0b-0" target="WIyWlLk6GJQsqaUBKTNV-7">
          <mxGeometry x="-0.9036" y="-10" relative="1" as="geometry">
            <mxPoint x="239" y="150" as="targetPoint" />
            <Array as="points">
              <mxPoint x="260" y="470" />
              <mxPoint x="260" y="205" />
            </Array>
            <mxPoint as="offset" />
          </mxGeometry>
        </mxCell>
        <mxCell id="CDUhiBHqFqVTl0LIPG0b-3" value="no" style="edgeStyle=orthogonalEdgeStyle;rounded=0;orthogonalLoop=1;jettySize=auto;html=1;entryX=0.5;entryY=0;entryDx=0;entryDy=0;" edge="1" parent="WIyWlLk6GJQsqaUBKTNV-1" source="CDUhiBHqFqVTl0LIPG0b-0" target="CDUhiBHqFqVTl0LIPG0b-5">
          <mxGeometry x="-0.8058" y="-10" relative="1" as="geometry">
            <mxPoint as="offset" />
          </mxGeometry>
        </mxCell>
        <mxCell id="CDUhiBHqFqVTl0LIPG0b-0" value="이미 존재하는 아이디인가?" style="rhombus;whiteSpace=wrap;html=1;rounded=0;glass=0;strokeWidth=1;shadow=0;" vertex="1" parent="WIyWlLk6GJQsqaUBKTNV-1">
          <mxGeometry x="64" y="430" width="170" height="80" as="geometry" />
        </mxCell>
        <mxCell id="CDUhiBHqFqVTl0LIPG0b-4" value="&#39;당신의 아이디는 이미 존재하는 아이디입니다&#39;를 출력하기" style="rounded=1;whiteSpace=wrap;html=1;" vertex="1" parent="WIyWlLk6GJQsqaUBKTNV-1">
          <mxGeometry x="112.5" y="350" width="175" height="30" as="geometry" />
        </mxCell>
        <mxCell id="CDUhiBHqFqVTl0LIPG0b-5" value="튜토리얼 시작" style="rounded=1;whiteSpace=wrap;html=1;" vertex="1" parent="WIyWlLk6GJQsqaUBKTNV-1">
          <mxGeometry x="109" y="530" width="80" height="30" as="geometry" />
        </mxCell>
        <mxCell id="CDUhiBHqFqVTl0LIPG0b-17" style="edgeStyle=orthogonalEdgeStyle;rounded=0;orthogonalLoop=1;jettySize=auto;html=1;" edge="1" parent="WIyWlLk6GJQsqaUBKTNV-1" source="CDUhiBHqFqVTl0LIPG0b-6" target="CDUhiBHqFqVTl0LIPG0b-12">
          <mxGeometry relative="1" as="geometry" />
        </mxCell>
        <mxCell id="CDUhiBHqFqVTl0LIPG0b-6" value="튜토리얼 안내 메시지를 작성한 순서대로 표시한다" style="rounded=1;whiteSpace=wrap;html=1;" vertex="1" parent="WIyWlLk6GJQsqaUBKTNV-1">
          <mxGeometry x="55" y="578" width="180" height="30" as="geometry" />
        </mxCell>
        <mxCell id="CDUhiBHqFqVTl0LIPG0b-11" value="Yes" style="edgeStyle=orthogonalEdgeStyle;rounded=0;orthogonalLoop=1;jettySize=auto;html=1;exitX=0.5;exitY=1;exitDx=0;exitDy=0;" edge="1" parent="WIyWlLk6GJQsqaUBKTNV-1" source="CDUhiBHqFqVTl0LIPG0b-7" target="CDUhiBHqFqVTl0LIPG0b-9">
          <mxGeometry relative="1" as="geometry" />
        </mxCell>
        <mxCell id="CDUhiBHqFqVTl0LIPG0b-20" value="No" style="edgeStyle=orthogonalEdgeStyle;rounded=0;orthogonalLoop=1;jettySize=auto;html=1;" edge="1" parent="WIyWlLk6GJQsqaUBKTNV-1">
          <mxGeometry x="-0.625" relative="1" as="geometry">
            <mxPoint x="205" y="660.0000000000001" as="targetPoint" />
            <mxPoint x="239.99999999999977" y="735" as="sourcePoint" />
            <Array as="points">
              <mxPoint x="249" y="735" />
              <mxPoint x="249" y="660" />
            </Array>
            <mxPoint as="offset" />
          </mxGeometry>
        </mxCell>
        <mxCell id="CDUhiBHqFqVTl0LIPG0b-7" value="3개 이상의 코인을 모았는가?" style="rhombus;whiteSpace=wrap;html=1;" vertex="1" parent="WIyWlLk6GJQsqaUBKTNV-1">
          <mxGeometry x="50" y="700" width="190" height="70" as="geometry" />
        </mxCell>
        <mxCell id="CDUhiBHqFqVTl0LIPG0b-9" value="튜토리얼 클리어 뜨고 맵 선택으로 씬이 전환된다" style="rounded=1;whiteSpace=wrap;html=1;" vertex="1" parent="WIyWlLk6GJQsqaUBKTNV-1">
          <mxGeometry x="75" y="800" width="140" height="35" as="geometry" />
        </mxCell>
        <mxCell id="CDUhiBHqFqVTl0LIPG0b-19" style="edgeStyle=orthogonalEdgeStyle;rounded=0;orthogonalLoop=1;jettySize=auto;html=1;entryX=0.5;entryY=0;entryDx=0;entryDy=0;" edge="1" parent="WIyWlLk6GJQsqaUBKTNV-1" source="CDUhiBHqFqVTl0LIPG0b-12" target="CDUhiBHqFqVTl0LIPG0b-7">
          <mxGeometry relative="1" as="geometry" />
        </mxCell>
        <mxCell id="CDUhiBHqFqVTl0LIPG0b-12" value="일반 게임처럼 게임을 진행한다" style="rounded=1;whiteSpace=wrap;html=1;" vertex="1" parent="WIyWlLk6GJQsqaUBKTNV-1">
          <mxGeometry x="85" y="626" width="120" height="60" as="geometry" />
        </mxCell>
        <mxCell id="CDUhiBHqFqVTl0LIPG0b-16" style="edgeStyle=orthogonalEdgeStyle;rounded=0;orthogonalLoop=1;jettySize=auto;html=1;entryX=0.521;entryY=0.06;entryDx=0;entryDy=0;entryPerimeter=0;" edge="1" parent="WIyWlLk6GJQsqaUBKTNV-1" source="CDUhiBHqFqVTl0LIPG0b-5" target="CDUhiBHqFqVTl0LIPG0b-6">
          <mxGeometry relative="1" as="geometry" />
        </mxCell>
        <mxCell id="CDUhiBHqFqVTl0LIPG0b-30" style="edgeStyle=orthogonalEdgeStyle;rounded=0;orthogonalLoop=1;jettySize=auto;html=1;exitX=0.5;exitY=1;exitDx=0;exitDy=0;" edge="1" parent="WIyWlLk6GJQsqaUBKTNV-1" source="CDUhiBHqFqVTl0LIPG0b-23" target="CDUhiBHqFqVTl0LIPG0b-26">
          <mxGeometry relative="1" as="geometry" />
        </mxCell>
        <mxCell id="CDUhiBHqFqVTl0LIPG0b-23" value="맵 선택화면 : 맵 선택 버튼들을 띄운다" style="rounded=1;whiteSpace=wrap;html=1;" vertex="1" parent="WIyWlLk6GJQsqaUBKTNV-1">
          <mxGeometry x="112.5" y="1010" width="120" height="60" as="geometry" />
        </mxCell>
        <mxCell id="CDUhiBHqFqVTl0LIPG0b-24" style="edgeStyle=orthogonalEdgeStyle;rounded=0;orthogonalLoop=1;jettySize=auto;html=1;entryX=0.304;entryY=-0.026;entryDx=0;entryDy=0;entryPerimeter=0;" edge="1" parent="WIyWlLk6GJQsqaUBKTNV-1" source="CDUhiBHqFqVTl0LIPG0b-9" target="CDUhiBHqFqVTl0LIPG0b-23">
          <mxGeometry relative="1" as="geometry">
            <Array as="points">
              <mxPoint x="145" y="990" />
              <mxPoint x="149" y="990" />
            </Array>
          </mxGeometry>
        </mxCell>
        <mxCell id="CDUhiBHqFqVTl0LIPG0b-61" value="Normal" style="edgeStyle=orthogonalEdgeStyle;rounded=0;orthogonalLoop=1;jettySize=auto;html=1;entryX=0.25;entryY=0;entryDx=0;entryDy=0;strokeWidth=3;fillColor=#fff2cc;strokeColor=#d6b656;" edge="1" parent="WIyWlLk6GJQsqaUBKTNV-1">
          <mxGeometry x="-0.9503" relative="1" as="geometry">
            <mxPoint x="502.4999999999991" y="1090" as="sourcePoint" />
            <mxPoint x="871" y="70" as="targetPoint" />
            <Array as="points">
              <mxPoint x="741" y="1090" />
              <mxPoint x="741" y="10" />
              <mxPoint x="871" y="10" />
            </Array>
            <mxPoint as="offset" />
          </mxGeometry>
        </mxCell>
        <mxCell id="CDUhiBHqFqVTl0LIPG0b-31" value="미니맵을 표시한다" style="rounded=1;whiteSpace=wrap;html=1;" vertex="1" parent="WIyWlLk6GJQsqaUBKTNV-1">
          <mxGeometry x="840" y="70" width="120" height="60" as="geometry" />
        </mxCell>
        <mxCell id="CDUhiBHqFqVTl0LIPG0b-32" value="자신의 일정한 주위만 보이는 미니맵을 표시한다" style="rounded=1;whiteSpace=wrap;html=1;" vertex="1" parent="WIyWlLk6GJQsqaUBKTNV-1">
          <mxGeometry x="1000" y="70" width="120" height="60" as="geometry" />
        </mxCell>
        <mxCell id="CDUhiBHqFqVTl0LIPG0b-55" style="edgeStyle=orthogonalEdgeStyle;rounded=0;orthogonalLoop=1;jettySize=auto;html=1;entryX=0.5;entryY=0;entryDx=0;entryDy=0;" edge="1" parent="WIyWlLk6GJQsqaUBKTNV-1" source="CDUhiBHqFqVTl0LIPG0b-33" target="CDUhiBHqFqVTl0LIPG0b-34">
          <mxGeometry relative="1" as="geometry" />
        </mxCell>
        <mxCell id="CDUhiBHqFqVTl0LIPG0b-33" value="4면이 벽으로 형성된 셀을 만든다" style="rounded=1;whiteSpace=wrap;html=1;" vertex="1" parent="WIyWlLk6GJQsqaUBKTNV-1">
          <mxGeometry x="440" y="130" width="120" height="60" as="geometry" />
        </mxCell>
        <mxCell id="CDUhiBHqFqVTl0LIPG0b-34" value="필드에서 시작점을 선택한다" style="rounded=1;whiteSpace=wrap;html=1;" vertex="1" parent="WIyWlLk6GJQsqaUBKTNV-1">
          <mxGeometry x="288" y="180" width="120" height="60" as="geometry" />
        </mxCell>
        <mxCell id="CDUhiBHqFqVTl0LIPG0b-47" style="edgeStyle=orthogonalEdgeStyle;rounded=0;orthogonalLoop=1;jettySize=auto;html=1;exitX=1;exitY=0.5;exitDx=0;exitDy=0;entryX=0.5;entryY=0;entryDx=0;entryDy=0;" edge="1" parent="WIyWlLk6GJQsqaUBKTNV-1" source="CDUhiBHqFqVTl0LIPG0b-36" target="CDUhiBHqFqVTl0LIPG0b-35">
          <mxGeometry relative="1" as="geometry">
            <Array as="points">
              <mxPoint x="540" y="330" />
            </Array>
          </mxGeometry>
        </mxCell>
        <mxCell id="CDUhiBHqFqVTl0LIPG0b-50" style="edgeStyle=orthogonalEdgeStyle;rounded=0;orthogonalLoop=1;jettySize=auto;html=1;entryX=0.5;entryY=0;entryDx=0;entryDy=0;" edge="1" parent="WIyWlLk6GJQsqaUBKTNV-1" source="CDUhiBHqFqVTl0LIPG0b-36" target="CDUhiBHqFqVTl0LIPG0b-37">
          <mxGeometry relative="1" as="geometry" />
        </mxCell>
        <mxCell id="CDUhiBHqFqVTl0LIPG0b-51" style="edgeStyle=orthogonalEdgeStyle;rounded=0;orthogonalLoop=1;jettySize=auto;html=1;entryX=0.5;entryY=0;entryDx=0;entryDy=0;" edge="1" parent="WIyWlLk6GJQsqaUBKTNV-1" source="CDUhiBHqFqVTl0LIPG0b-37" target="CDUhiBHqFqVTl0LIPG0b-41">
          <mxGeometry relative="1" as="geometry" />
        </mxCell>
        <mxCell id="CDUhiBHqFqVTl0LIPG0b-37" value="인접한 모든 셀을 방문했는가?" style="rhombus;whiteSpace=wrap;html=1;" vertex="1" parent="WIyWlLk6GJQsqaUBKTNV-1">
          <mxGeometry x="260" y="498" width="220" height="80" as="geometry" />
        </mxCell>
        <mxCell id="CDUhiBHqFqVTl0LIPG0b-42" value="Yes" style="edgeStyle=orthogonalEdgeStyle;rounded=0;orthogonalLoop=1;jettySize=auto;html=1;exitX=0.5;exitY=1;exitDx=0;exitDy=0;" edge="1" parent="WIyWlLk6GJQsqaUBKTNV-1" source="CDUhiBHqFqVTl0LIPG0b-38" target="CDUhiBHqFqVTl0LIPG0b-40">
          <mxGeometry relative="1" as="geometry" />
        </mxCell>
        <mxCell id="CDUhiBHqFqVTl0LIPG0b-38" value="백업한 셀이 시작한 셀인가?" style="rhombus;whiteSpace=wrap;html=1;" vertex="1" parent="WIyWlLk6GJQsqaUBKTNV-1">
          <mxGeometry x="219.75" y="755" width="183.5" height="80" as="geometry" />
        </mxCell>
        <mxCell id="CDUhiBHqFqVTl0LIPG0b-40" value="생성된 미로를 저장한다" style="rounded=1;whiteSpace=wrap;html=1;" vertex="1" parent="WIyWlLk6GJQsqaUBKTNV-1">
          <mxGeometry x="246.5" y="1000" width="130" height="20" as="geometry" />
        </mxCell>
        <mxCell id="CDUhiBHqFqVTl0LIPG0b-44" style="edgeStyle=orthogonalEdgeStyle;rounded=0;orthogonalLoop=1;jettySize=auto;html=1;exitX=0.5;exitY=1;exitDx=0;exitDy=0;entryX=0.5;entryY=0;entryDx=0;entryDy=0;" edge="1" parent="WIyWlLk6GJQsqaUBKTNV-1" source="CDUhiBHqFqVTl0LIPG0b-41" target="CDUhiBHqFqVTl0LIPG0b-38">
          <mxGeometry relative="1" as="geometry" />
        </mxCell>
        <mxCell id="CDUhiBHqFqVTl0LIPG0b-41" value="조각되지 않은 마지막 셀로 백업한다" style="rounded=1;whiteSpace=wrap;html=1;" vertex="1" parent="WIyWlLk6GJQsqaUBKTNV-1">
          <mxGeometry x="330" y="640" width="120" height="60" as="geometry" />
        </mxCell>
        <mxCell id="CDUhiBHqFqVTl0LIPG0b-46" style="edgeStyle=orthogonalEdgeStyle;rounded=0;orthogonalLoop=1;jettySize=auto;html=1;exitX=0.5;exitY=1;exitDx=0;exitDy=0;entryX=0.462;entryY=0.03;entryDx=0;entryDy=0;entryPerimeter=0;" edge="1" parent="WIyWlLk6GJQsqaUBKTNV-1" source="CDUhiBHqFqVTl0LIPG0b-34" target="CDUhiBHqFqVTl0LIPG0b-36">
          <mxGeometry relative="1" as="geometry" />
        </mxCell>
        <mxCell id="CDUhiBHqFqVTl0LIPG0b-49" value="No" style="edgeStyle=orthogonalEdgeStyle;rounded=0;orthogonalLoop=1;jettySize=auto;html=1;" edge="1" parent="WIyWlLk6GJQsqaUBKTNV-1">
          <mxGeometry x="-0.931" y="10" relative="1" as="geometry">
            <mxPoint x="385.76125" y="805" as="sourcePoint" />
            <mxPoint x="643.98" y="315" as="targetPoint" />
            <Array as="points">
              <mxPoint x="693.98" y="805" />
              <mxPoint x="693.98" y="285" />
              <mxPoint x="643.98" y="285" />
            </Array>
            <mxPoint as="offset" />
          </mxGeometry>
        </mxCell>
        <mxCell id="CDUhiBHqFqVTl0LIPG0b-53" style="edgeStyle=orthogonalEdgeStyle;rounded=0;orthogonalLoop=1;jettySize=auto;html=1;exitX=1;exitY=0.5;exitDx=0;exitDy=0;entryX=1;entryY=0;entryDx=0;entryDy=0;" edge="1" parent="WIyWlLk6GJQsqaUBKTNV-1" source="CDUhiBHqFqVTl0LIPG0b-35" target="CDUhiBHqFqVTl0LIPG0b-36">
          <mxGeometry relative="1" as="geometry">
            <mxPoint x="630" y="400" as="targetPoint" />
            <Array as="points">
              <mxPoint x="670" y="600" />
              <mxPoint x="670" y="260" />
              <mxPoint x="620" y="260" />
              <mxPoint x="620" y="300" />
              <mxPoint x="622" y="300" />
            </Array>
          </mxGeometry>
        </mxCell>
        <mxCell id="CDUhiBHqFqVTl0LIPG0b-35" value="방문하지 않은 인접한 셀로 통과하는 통로를 개척하고 방문한 표식을 셀에 부여한다" style="rounded=1;whiteSpace=wrap;html=1;" vertex="1" parent="WIyWlLk6GJQsqaUBKTNV-1">
          <mxGeometry x="420" y="570" width="239.75" height="60" as="geometry" />
        </mxCell>
        <mxCell id="CDUhiBHqFqVTl0LIPG0b-57" value="" style="endArrow=none;dashed=1;html=1;dashPattern=1 3;strokeWidth=2;rounded=0;entryX=0.5;entryY=0;entryDx=0;entryDy=0;exitX=1.016;exitY=0.512;exitDx=0;exitDy=0;exitPerimeter=0;" edge="1" parent="WIyWlLk6GJQsqaUBKTNV-1" source="WIyWlLk6GJQsqaUBKTNV-6" target="CDUhiBHqFqVTl0LIPG0b-33">
          <mxGeometry width="50" height="50" relative="1" as="geometry">
            <mxPoint x="400" y="70" as="sourcePoint" />
            <mxPoint x="450" y="20" as="targetPoint" />
            <Array as="points">
              <mxPoint x="500" y="116" />
            </Array>
          </mxGeometry>
        </mxCell>
        <mxCell id="CDUhiBHqFqVTl0LIPG0b-59" value="" style="endArrow=none;dashed=1;html=1;dashPattern=1 3;strokeWidth=2;rounded=0;exitX=1;exitY=0.5;exitDx=0;exitDy=0;entryX=0.006;entryY=0.449;entryDx=0;entryDy=0;entryPerimeter=0;" edge="1" parent="WIyWlLk6GJQsqaUBKTNV-1" target="CDUhiBHqFqVTl0LIPG0b-31">
          <mxGeometry width="50" height="50" relative="1" as="geometry">
            <mxPoint x="360" y="996" as="sourcePoint" />
            <mxPoint x="1013.5" y="101" as="targetPoint" />
            <Array as="points">
              <mxPoint x="703.5" y="996" />
              <mxPoint x="694" y="100" />
            </Array>
          </mxGeometry>
        </mxCell>
        <mxCell id="CDUhiBHqFqVTl0LIPG0b-36" value="해당 지점에서 임의로 셀을 선택했는데 아직 방문하지 않았는가?" style="rhombus;whiteSpace=wrap;html=1;" vertex="1" parent="WIyWlLk6GJQsqaUBKTNV-1">
          <mxGeometry x="270" y="290" width="470" height="80" as="geometry" />
        </mxCell>
        <mxCell id="CDUhiBHqFqVTl0LIPG0b-60" value="" style="endArrow=none;dashed=1;html=1;dashPattern=1 3;strokeWidth=2;rounded=0;entryX=0.25;entryY=0;entryDx=0;entryDy=0;" edge="1" parent="WIyWlLk6GJQsqaUBKTNV-1" target="CDUhiBHqFqVTl0LIPG0b-32">
          <mxGeometry width="50" height="50" relative="1" as="geometry">
            <mxPoint x="700" y="90" as="sourcePoint" />
            <mxPoint x="1090" y="40" as="targetPoint" />
            <Array as="points">
              <mxPoint x="700" y="40" />
              <mxPoint x="1030" y="40" />
            </Array>
          </mxGeometry>
        </mxCell>
        <mxCell id="CDUhiBHqFqVTl0LIPG0b-62" value="Horror" style="edgeStyle=orthogonalEdgeStyle;rounded=0;orthogonalLoop=1;jettySize=auto;html=1;exitX=1;exitY=0;exitDx=0;exitDy=0;entryX=0.592;entryY=0.004;entryDx=0;entryDy=0;entryPerimeter=0;strokeWidth=3;fillColor=#dae8fc;strokeColor=#6c8ebf;" edge="1" parent="WIyWlLk6GJQsqaUBKTNV-1" source="CDUhiBHqFqVTl0LIPG0b-26" target="CDUhiBHqFqVTl0LIPG0b-32">
          <mxGeometry x="-0.8932" relative="1" as="geometry">
            <Array as="points">
              <mxPoint x="457" y="1110" />
              <mxPoint x="751" y="1110" />
              <mxPoint x="751" y="50" />
              <mxPoint x="1071" y="50" />
            </Array>
            <mxPoint as="offset" />
          </mxGeometry>
        </mxCell>
        <mxCell id="CDUhiBHqFqVTl0LIPG0b-26" value="어떤 모드를 선택했는가?" style="rhombus;whiteSpace=wrap;html=1;" vertex="1" parent="WIyWlLk6GJQsqaUBKTNV-1">
          <mxGeometry x="325" y="1050" width="176.5" height="80" as="geometry" />
        </mxCell>
        <mxCell id="CDUhiBHqFqVTl0LIPG0b-70" value="Yes" style="edgeStyle=orthogonalEdgeStyle;rounded=0;orthogonalLoop=1;jettySize=auto;html=1;entryX=0.5;entryY=0;entryDx=0;entryDy=0;" edge="1" parent="WIyWlLk6GJQsqaUBKTNV-1" source="CDUhiBHqFqVTl0LIPG0b-63" target="CDUhiBHqFqVTl0LIPG0b-69">
          <mxGeometry relative="1" as="geometry" />
        </mxCell>
        <mxCell id="CDUhiBHqFqVTl0LIPG0b-63" value="코인에 부딪혔는가?" style="rhombus;whiteSpace=wrap;html=1;" vertex="1" parent="WIyWlLk6GJQsqaUBKTNV-1">
          <mxGeometry x="829.5" y="290" width="140" height="80" as="geometry" />
        </mxCell>
        <mxCell id="CDUhiBHqFqVTl0LIPG0b-67" value="Yes" style="edgeStyle=orthogonalEdgeStyle;rounded=0;orthogonalLoop=1;jettySize=auto;html=1;entryX=0.5;entryY=0;entryDx=0;entryDy=0;" edge="1" parent="WIyWlLk6GJQsqaUBKTNV-1" source="CDUhiBHqFqVTl0LIPG0b-64" target="CDUhiBHqFqVTl0LIPG0b-65">
          <mxGeometry relative="1" as="geometry" />
        </mxCell>
        <mxCell id="CDUhiBHqFqVTl0LIPG0b-64" value="코인이 10개 이상인가?" style="rhombus;whiteSpace=wrap;html=1;" vertex="1" parent="WIyWlLk6GJQsqaUBKTNV-1">
          <mxGeometry x="822.5" y="480" width="155" height="80" as="geometry" />
        </mxCell>
        <mxCell id="CDUhiBHqFqVTl0LIPG0b-65" value="맵에서 나가고&lt;br&gt;성공화면이 뜬다" style="shape=document;whiteSpace=wrap;html=1;boundedLbl=1;" vertex="1" parent="WIyWlLk6GJQsqaUBKTNV-1">
          <mxGeometry x="842.5" y="588" width="120" height="80" as="geometry" />
        </mxCell>
        <mxCell id="CDUhiBHqFqVTl0LIPG0b-71" style="edgeStyle=orthogonalEdgeStyle;rounded=0;orthogonalLoop=1;jettySize=auto;html=1;entryX=0.5;entryY=0;entryDx=0;entryDy=0;" edge="1" parent="WIyWlLk6GJQsqaUBKTNV-1" source="CDUhiBHqFqVTl0LIPG0b-69" target="CDUhiBHqFqVTl0LIPG0b-64">
          <mxGeometry relative="1" as="geometry" />
        </mxCell>
        <mxCell id="CDUhiBHqFqVTl0LIPG0b-69" value="획득한 코인 수를 1 올리고&lt;br&gt;화면의 코인 수도 1 올린다" style="rounded=1;whiteSpace=wrap;html=1;" vertex="1" parent="WIyWlLk6GJQsqaUBKTNV-1">
          <mxGeometry x="820" y="400" width="160" height="40" as="geometry" />
        </mxCell>
        <mxCell id="CDUhiBHqFqVTl0LIPG0b-85" style="edgeStyle=orthogonalEdgeStyle;rounded=0;orthogonalLoop=1;jettySize=auto;html=1;entryX=0.5;entryY=0;entryDx=0;entryDy=0;" edge="1" parent="WIyWlLk6GJQsqaUBKTNV-1" source="CDUhiBHqFqVTl0LIPG0b-72" target="CDUhiBHqFqVTl0LIPG0b-63">
          <mxGeometry relative="1" as="geometry" />
        </mxCell>
        <mxCell id="CDUhiBHqFqVTl0LIPG0b-88" style="edgeStyle=orthogonalEdgeStyle;rounded=0;orthogonalLoop=1;jettySize=auto;html=1;entryX=0.5;entryY=0;entryDx=0;entryDy=0;" edge="1" parent="WIyWlLk6GJQsqaUBKTNV-1" source="CDUhiBHqFqVTl0LIPG0b-72" target="CDUhiBHqFqVTl0LIPG0b-74">
          <mxGeometry relative="1" as="geometry" />
        </mxCell>
        <mxCell id="CDUhiBHqFqVTl0LIPG0b-72" value="키 입력을 받고 키에 맞춰 이동한다" style="rounded=1;whiteSpace=wrap;html=1;" vertex="1" parent="WIyWlLk6GJQsqaUBKTNV-1">
          <mxGeometry x="932.5" y="230" width="200" height="30" as="geometry" />
        </mxCell>
        <mxCell id="CDUhiBHqFqVTl0LIPG0b-84" style="edgeStyle=orthogonalEdgeStyle;rounded=0;orthogonalLoop=1;jettySize=auto;html=1;entryX=0;entryY=0.75;entryDx=0;entryDy=0;" edge="1" parent="WIyWlLk6GJQsqaUBKTNV-1" source="CDUhiBHqFqVTl0LIPG0b-73" target="CDUhiBHqFqVTl0LIPG0b-78">
          <mxGeometry relative="1" as="geometry">
            <Array as="points">
              <mxPoint x="1040" y="550" />
            </Array>
          </mxGeometry>
        </mxCell>
        <mxCell id="CDUhiBHqFqVTl0LIPG0b-73" value="속도를 일정량 높인다" style="rounded=1;whiteSpace=wrap;html=1;" vertex="1" parent="WIyWlLk6GJQsqaUBKTNV-1">
          <mxGeometry x="972.5" y="490" width="120" height="20" as="geometry" />
        </mxCell>
        <mxCell id="CDUhiBHqFqVTl0LIPG0b-77" value="No" style="edgeStyle=orthogonalEdgeStyle;rounded=0;orthogonalLoop=1;jettySize=auto;html=1;exitX=1;exitY=1;exitDx=0;exitDy=0;entryX=0.5;entryY=0;entryDx=0;entryDy=0;" edge="1" parent="WIyWlLk6GJQsqaUBKTNV-1" source="CDUhiBHqFqVTl0LIPG0b-74" target="CDUhiBHqFqVTl0LIPG0b-75">
          <mxGeometry relative="1" as="geometry" />
        </mxCell>
        <mxCell id="CDUhiBHqFqVTl0LIPG0b-82" value="Yes" style="edgeStyle=orthogonalEdgeStyle;rounded=0;orthogonalLoop=1;jettySize=auto;html=1;exitX=0;exitY=1;exitDx=0;exitDy=0;entryX=0.5;entryY=0;entryDx=0;entryDy=0;" edge="1" parent="WIyWlLk6GJQsqaUBKTNV-1" source="CDUhiBHqFqVTl0LIPG0b-74" target="CDUhiBHqFqVTl0LIPG0b-79">
          <mxGeometry relative="1" as="geometry" />
        </mxCell>
        <mxCell id="CDUhiBHqFqVTl0LIPG0b-74" value="쉬프트 키를 눌렀는가?" style="rhombus;whiteSpace=wrap;html=1;" vertex="1" parent="WIyWlLk6GJQsqaUBKTNV-1">
          <mxGeometry x="1050" y="290" width="150" height="80" as="geometry" />
        </mxCell>
        <mxCell id="CDUhiBHqFqVTl0LIPG0b-83" style="edgeStyle=orthogonalEdgeStyle;rounded=0;orthogonalLoop=1;jettySize=auto;html=1;entryX=1;entryY=0.5;entryDx=0;entryDy=0;" edge="1" parent="WIyWlLk6GJQsqaUBKTNV-1" source="CDUhiBHqFqVTl0LIPG0b-75" target="CDUhiBHqFqVTl0LIPG0b-78">
          <mxGeometry relative="1" as="geometry">
            <Array as="points">
              <mxPoint x="1180" y="545" />
            </Array>
          </mxGeometry>
        </mxCell>
        <mxCell id="CDUhiBHqFqVTl0LIPG0b-75" value="원래 속도로 되돌린다" style="rounded=1;whiteSpace=wrap;html=1;" vertex="1" parent="WIyWlLk6GJQsqaUBKTNV-1">
          <mxGeometry x="1130" y="470" width="120" height="20" as="geometry" />
        </mxCell>
        <mxCell id="CDUhiBHqFqVTl0LIPG0b-89" style="edgeStyle=orthogonalEdgeStyle;rounded=0;orthogonalLoop=1;jettySize=auto;html=1;entryX=0.25;entryY=0;entryDx=0;entryDy=0;" edge="1" parent="WIyWlLk6GJQsqaUBKTNV-1" source="CDUhiBHqFqVTl0LIPG0b-78" target="CDUhiBHqFqVTl0LIPG0b-72">
          <mxGeometry relative="1" as="geometry">
            <Array as="points">
              <mxPoint x="1111" y="680" />
              <mxPoint x="760" y="680" />
              <mxPoint x="760" y="160" />
              <mxPoint x="983" y="160" />
            </Array>
          </mxGeometry>
        </mxCell>
        <mxCell id="CDUhiBHqFqVTl0LIPG0b-78" value="" style="rounded=1;whiteSpace=wrap;html=1;" vertex="1" parent="WIyWlLk6GJQsqaUBKTNV-1">
          <mxGeometry x="1100" y="535" width="22.5" height="20" as="geometry" />
        </mxCell>
        <mxCell id="CDUhiBHqFqVTl0LIPG0b-80" value="Yes" style="edgeStyle=orthogonalEdgeStyle;rounded=0;orthogonalLoop=1;jettySize=auto;html=1;" edge="1" parent="WIyWlLk6GJQsqaUBKTNV-1" source="CDUhiBHqFqVTl0LIPG0b-79" target="CDUhiBHqFqVTl0LIPG0b-78">
          <mxGeometry relative="1" as="geometry">
            <Array as="points">
              <mxPoint x="1110" y="530" />
            </Array>
          </mxGeometry>
        </mxCell>
        <mxCell id="CDUhiBHqFqVTl0LIPG0b-81" value="No" style="edgeStyle=orthogonalEdgeStyle;rounded=0;orthogonalLoop=1;jettySize=auto;html=1;exitX=0;exitY=1;exitDx=0;exitDy=0;entryX=0.5;entryY=0;entryDx=0;entryDy=0;" edge="1" parent="WIyWlLk6GJQsqaUBKTNV-1" source="CDUhiBHqFqVTl0LIPG0b-79" target="CDUhiBHqFqVTl0LIPG0b-73">
          <mxGeometry relative="1" as="geometry" />
        </mxCell>
        <mxCell id="CDUhiBHqFqVTl0LIPG0b-79" value="이미 증가된 속도인가?" style="rhombus;whiteSpace=wrap;html=1;" vertex="1" parent="WIyWlLk6GJQsqaUBKTNV-1">
          <mxGeometry x="995" y="380" width="150" height="80" as="geometry" />
        </mxCell>
        <mxCell id="CDUhiBHqFqVTl0LIPG0b-86" value="No" style="edgeStyle=orthogonalEdgeStyle;rounded=0;orthogonalLoop=1;jettySize=auto;html=1;" edge="1" parent="WIyWlLk6GJQsqaUBKTNV-1" source="CDUhiBHqFqVTl0LIPG0b-64">
          <mxGeometry relative="1" as="geometry">
            <mxPoint x="970" y="230" as="targetPoint" />
            <Array as="points">
              <mxPoint x="770" y="520" />
              <mxPoint x="770" y="170" />
              <mxPoint x="970" y="170" />
              <mxPoint x="970" y="230" />
            </Array>
          </mxGeometry>
        </mxCell>
        <mxCell id="CDUhiBHqFqVTl0LIPG0b-87" value="No" style="edgeStyle=orthogonalEdgeStyle;rounded=0;orthogonalLoop=1;jettySize=auto;html=1;entryX=0.096;entryY=-0.047;entryDx=0;entryDy=0;entryPerimeter=0;" edge="1" parent="WIyWlLk6GJQsqaUBKTNV-1" source="CDUhiBHqFqVTl0LIPG0b-63" target="CDUhiBHqFqVTl0LIPG0b-72">
          <mxGeometry relative="1" as="geometry">
            <Array as="points">
              <mxPoint x="810" y="330" />
              <mxPoint x="810" y="190" />
              <mxPoint x="952" y="190" />
            </Array>
          </mxGeometry>
        </mxCell>
        <mxCell id="CDUhiBHqFqVTl0LIPG0b-90" style="edgeStyle=orthogonalEdgeStyle;orthogonalLoop=1;jettySize=auto;html=1;exitX=0.5;exitY=1;exitDx=0;exitDy=0;entryX=0.345;entryY=0.047;entryDx=0;entryDy=0;entryPerimeter=0;curved=1;fillColor=#e1d5e7;strokeColor=#9673a6;" edge="1" parent="WIyWlLk6GJQsqaUBKTNV-1" source="CDUhiBHqFqVTl0LIPG0b-31" target="CDUhiBHqFqVTl0LIPG0b-72">
          <mxGeometry relative="1" as="geometry">
            <Array as="points">
              <mxPoint x="900" y="150" />
              <mxPoint x="1001" y="150" />
            </Array>
          </mxGeometry>
        </mxCell>
        <mxCell id="CDUhiBHqFqVTl0LIPG0b-91" value="Yes" style="edgeStyle=orthogonalEdgeStyle;rounded=0;orthogonalLoop=1;jettySize=auto;html=1;entryX=0.5;entryY=0;entryDx=0;entryDy=0;" edge="1" parent="WIyWlLk6GJQsqaUBKTNV-1" source="CDUhiBHqFqVTl0LIPG0b-92" target="CDUhiBHqFqVTl0LIPG0b-97">
          <mxGeometry relative="1" as="geometry" />
        </mxCell>
        <mxCell id="CDUhiBHqFqVTl0LIPG0b-92" value="코인에 부딪혔는가?" style="rhombus;whiteSpace=wrap;html=1;" vertex="1" parent="WIyWlLk6GJQsqaUBKTNV-1">
          <mxGeometry x="829.47" y="830" width="140" height="80" as="geometry" />
        </mxCell>
        <mxCell id="CDUhiBHqFqVTl0LIPG0b-93" value="Yes" style="edgeStyle=orthogonalEdgeStyle;rounded=0;orthogonalLoop=1;jettySize=auto;html=1;entryX=0.5;entryY=0;entryDx=0;entryDy=0;" edge="1" parent="WIyWlLk6GJQsqaUBKTNV-1" source="CDUhiBHqFqVTl0LIPG0b-94" target="CDUhiBHqFqVTl0LIPG0b-95">
          <mxGeometry relative="1" as="geometry" />
        </mxCell>
        <mxCell id="CDUhiBHqFqVTl0LIPG0b-94" value="코인이 10개 이상인가?" style="rhombus;whiteSpace=wrap;html=1;" vertex="1" parent="WIyWlLk6GJQsqaUBKTNV-1">
          <mxGeometry x="822.47" y="1020" width="155" height="80" as="geometry" />
        </mxCell>
        <mxCell id="CDUhiBHqFqVTl0LIPG0b-95" value="맵에서 나가고&lt;br&gt;성공화면이 뜬다" style="shape=document;whiteSpace=wrap;html=1;boundedLbl=1;" vertex="1" parent="WIyWlLk6GJQsqaUBKTNV-1">
          <mxGeometry x="842.47" y="1128" width="120" height="80" as="geometry" />
        </mxCell>
        <mxCell id="CDUhiBHqFqVTl0LIPG0b-96" style="edgeStyle=orthogonalEdgeStyle;rounded=0;orthogonalLoop=1;jettySize=auto;html=1;entryX=0.5;entryY=0;entryDx=0;entryDy=0;" edge="1" parent="WIyWlLk6GJQsqaUBKTNV-1" source="CDUhiBHqFqVTl0LIPG0b-97" target="CDUhiBHqFqVTl0LIPG0b-94">
          <mxGeometry relative="1" as="geometry" />
        </mxCell>
        <mxCell id="CDUhiBHqFqVTl0LIPG0b-97" value="획득한 코인 수를 1 올리고&lt;br&gt;화면의 코인 수도 1 올린다" style="rounded=1;whiteSpace=wrap;html=1;" vertex="1" parent="WIyWlLk6GJQsqaUBKTNV-1">
          <mxGeometry x="819.97" y="940" width="160" height="40" as="geometry" />
        </mxCell>
        <mxCell id="CDUhiBHqFqVTl0LIPG0b-98" style="edgeStyle=orthogonalEdgeStyle;rounded=0;orthogonalLoop=1;jettySize=auto;html=1;entryX=0.5;entryY=0;entryDx=0;entryDy=0;" edge="1" parent="WIyWlLk6GJQsqaUBKTNV-1" source="CDUhiBHqFqVTl0LIPG0b-100" target="CDUhiBHqFqVTl0LIPG0b-92">
          <mxGeometry relative="1" as="geometry" />
        </mxCell>
        <mxCell id="CDUhiBHqFqVTl0LIPG0b-99" style="edgeStyle=orthogonalEdgeStyle;rounded=0;orthogonalLoop=1;jettySize=auto;html=1;entryX=0.5;entryY=0;entryDx=0;entryDy=0;" edge="1" parent="WIyWlLk6GJQsqaUBKTNV-1" source="CDUhiBHqFqVTl0LIPG0b-100" target="CDUhiBHqFqVTl0LIPG0b-105">
          <mxGeometry relative="1" as="geometry" />
        </mxCell>
        <mxCell id="CDUhiBHqFqVTl0LIPG0b-119" style="edgeStyle=orthogonalEdgeStyle;rounded=0;orthogonalLoop=1;jettySize=auto;html=1;exitX=0.5;exitY=1;exitDx=0;exitDy=0;entryX=0.5;entryY=0;entryDx=0;entryDy=0;" edge="1" parent="WIyWlLk6GJQsqaUBKTNV-1" source="CDUhiBHqFqVTl0LIPG0b-100" target="CDUhiBHqFqVTl0LIPG0b-116">
          <mxGeometry relative="1" as="geometry" />
        </mxCell>
        <mxCell id="CDUhiBHqFqVTl0LIPG0b-100" value="키 입력을 받고 키에 맞춰 이동한다" style="rounded=1;whiteSpace=wrap;html=1;" vertex="1" parent="WIyWlLk6GJQsqaUBKTNV-1">
          <mxGeometry x="932.47" y="764" width="200" height="30" as="geometry" />
        </mxCell>
        <mxCell id="CDUhiBHqFqVTl0LIPG0b-101" style="edgeStyle=orthogonalEdgeStyle;rounded=0;orthogonalLoop=1;jettySize=auto;html=1;entryX=0;entryY=0.75;entryDx=0;entryDy=0;" edge="1" parent="WIyWlLk6GJQsqaUBKTNV-1" source="CDUhiBHqFqVTl0LIPG0b-102" target="CDUhiBHqFqVTl0LIPG0b-108">
          <mxGeometry relative="1" as="geometry">
            <Array as="points">
              <mxPoint x="1039.97" y="1090" />
            </Array>
          </mxGeometry>
        </mxCell>
        <mxCell id="CDUhiBHqFqVTl0LIPG0b-102" value="속도를 일정량 높인다" style="rounded=1;whiteSpace=wrap;html=1;" vertex="1" parent="WIyWlLk6GJQsqaUBKTNV-1">
          <mxGeometry x="972.47" y="1030" width="120" height="20" as="geometry" />
        </mxCell>
        <mxCell id="CDUhiBHqFqVTl0LIPG0b-103" value="No" style="edgeStyle=orthogonalEdgeStyle;rounded=0;orthogonalLoop=1;jettySize=auto;html=1;exitX=1;exitY=1;exitDx=0;exitDy=0;entryX=0.5;entryY=0;entryDx=0;entryDy=0;" edge="1" parent="WIyWlLk6GJQsqaUBKTNV-1" source="CDUhiBHqFqVTl0LIPG0b-105">
          <mxGeometry relative="1" as="geometry">
            <mxPoint x="1189.97" y="1010" as="targetPoint" />
          </mxGeometry>
        </mxCell>
        <mxCell id="CDUhiBHqFqVTl0LIPG0b-104" value="Yes" style="edgeStyle=orthogonalEdgeStyle;rounded=0;orthogonalLoop=1;jettySize=auto;html=1;exitX=0;exitY=1;exitDx=0;exitDy=0;entryX=0.5;entryY=0;entryDx=0;entryDy=0;" edge="1" parent="WIyWlLk6GJQsqaUBKTNV-1" source="CDUhiBHqFqVTl0LIPG0b-105" target="CDUhiBHqFqVTl0LIPG0b-111">
          <mxGeometry relative="1" as="geometry" />
        </mxCell>
        <mxCell id="CDUhiBHqFqVTl0LIPG0b-105" value="쉬프트 키를 눌렀는가?" style="rhombus;whiteSpace=wrap;html=1;" vertex="1" parent="WIyWlLk6GJQsqaUBKTNV-1">
          <mxGeometry x="1049.97" y="830" width="150" height="80" as="geometry" />
        </mxCell>
        <mxCell id="CDUhiBHqFqVTl0LIPG0b-106" style="edgeStyle=orthogonalEdgeStyle;rounded=0;orthogonalLoop=1;jettySize=auto;html=1;entryX=1;entryY=0.5;entryDx=0;entryDy=0;" edge="1" parent="WIyWlLk6GJQsqaUBKTNV-1" target="CDUhiBHqFqVTl0LIPG0b-108">
          <mxGeometry relative="1" as="geometry">
            <mxPoint x="1179.97" y="1030" as="sourcePoint" />
            <Array as="points">
              <mxPoint x="1179.97" y="1085" />
            </Array>
          </mxGeometry>
        </mxCell>
        <mxCell id="CDUhiBHqFqVTl0LIPG0b-107" style="edgeStyle=orthogonalEdgeStyle;rounded=0;orthogonalLoop=1;jettySize=auto;html=1;entryX=0.25;entryY=0;entryDx=0;entryDy=0;" edge="1" parent="WIyWlLk6GJQsqaUBKTNV-1" source="CDUhiBHqFqVTl0LIPG0b-108" target="CDUhiBHqFqVTl0LIPG0b-100">
          <mxGeometry relative="1" as="geometry">
            <Array as="points">
              <mxPoint x="1110.97" y="1220" />
              <mxPoint x="759.97" y="1220" />
              <mxPoint x="759.97" y="700" />
              <mxPoint x="982.97" y="700" />
            </Array>
          </mxGeometry>
        </mxCell>
        <mxCell id="CDUhiBHqFqVTl0LIPG0b-108" value="" style="rounded=1;whiteSpace=wrap;html=1;" vertex="1" parent="WIyWlLk6GJQsqaUBKTNV-1">
          <mxGeometry x="1099.97" y="1075" width="22.5" height="20" as="geometry" />
        </mxCell>
        <mxCell id="CDUhiBHqFqVTl0LIPG0b-109" value="Yes" style="edgeStyle=orthogonalEdgeStyle;rounded=0;orthogonalLoop=1;jettySize=auto;html=1;" edge="1" parent="WIyWlLk6GJQsqaUBKTNV-1" source="CDUhiBHqFqVTl0LIPG0b-111" target="CDUhiBHqFqVTl0LIPG0b-108">
          <mxGeometry relative="1" as="geometry">
            <Array as="points">
              <mxPoint x="1109.97" y="1070" />
            </Array>
          </mxGeometry>
        </mxCell>
        <mxCell id="CDUhiBHqFqVTl0LIPG0b-110" value="No" style="edgeStyle=orthogonalEdgeStyle;rounded=0;orthogonalLoop=1;jettySize=auto;html=1;exitX=0;exitY=1;exitDx=0;exitDy=0;entryX=0.5;entryY=0;entryDx=0;entryDy=0;" edge="1" parent="WIyWlLk6GJQsqaUBKTNV-1" source="CDUhiBHqFqVTl0LIPG0b-111" target="CDUhiBHqFqVTl0LIPG0b-102">
          <mxGeometry relative="1" as="geometry" />
        </mxCell>
        <mxCell id="CDUhiBHqFqVTl0LIPG0b-111" value="이미 증가된 속도인가?" style="rhombus;whiteSpace=wrap;html=1;" vertex="1" parent="WIyWlLk6GJQsqaUBKTNV-1">
          <mxGeometry x="994.97" y="920" width="150" height="80" as="geometry" />
        </mxCell>
        <mxCell id="CDUhiBHqFqVTl0LIPG0b-112" value="No" style="edgeStyle=orthogonalEdgeStyle;rounded=0;orthogonalLoop=1;jettySize=auto;html=1;" edge="1" parent="WIyWlLk6GJQsqaUBKTNV-1" source="CDUhiBHqFqVTl0LIPG0b-94">
          <mxGeometry relative="1" as="geometry">
            <mxPoint x="969.97" y="770" as="targetPoint" />
            <Array as="points">
              <mxPoint x="769.97" y="1060" />
              <mxPoint x="769.97" y="710" />
              <mxPoint x="969.97" y="710" />
              <mxPoint x="969.97" y="770" />
            </Array>
          </mxGeometry>
        </mxCell>
        <mxCell id="CDUhiBHqFqVTl0LIPG0b-113" value="No" style="edgeStyle=orthogonalEdgeStyle;rounded=0;orthogonalLoop=1;jettySize=auto;html=1;entryX=0.096;entryY=-0.047;entryDx=0;entryDy=0;entryPerimeter=0;" edge="1" parent="WIyWlLk6GJQsqaUBKTNV-1" source="CDUhiBHqFqVTl0LIPG0b-92" target="CDUhiBHqFqVTl0LIPG0b-100">
          <mxGeometry relative="1" as="geometry">
            <Array as="points">
              <mxPoint x="809.97" y="870" />
              <mxPoint x="809.97" y="730" />
              <mxPoint x="951.97" y="730" />
            </Array>
          </mxGeometry>
        </mxCell>
        <mxCell id="CDUhiBHqFqVTl0LIPG0b-114" style="edgeStyle=orthogonalEdgeStyle;orthogonalLoop=1;jettySize=auto;html=1;exitX=0.5;exitY=1;exitDx=0;exitDy=0;entryX=0.345;entryY=0.047;entryDx=0;entryDy=0;entryPerimeter=0;fillColor=#e1d5e7;strokeColor=#9673a6;curved=1;" edge="1" parent="WIyWlLk6GJQsqaUBKTNV-1" target="CDUhiBHqFqVTl0LIPG0b-100" source="CDUhiBHqFqVTl0LIPG0b-32">
          <mxGeometry relative="1" as="geometry">
            <mxPoint x="1400" y="136" as="sourcePoint" />
            <Array as="points">
              <mxPoint x="1060" y="156" />
              <mxPoint x="1250" y="156" />
              <mxPoint x="1250" y="710" />
              <mxPoint x="1002" y="710" />
            </Array>
          </mxGeometry>
        </mxCell>
        <mxCell id="CDUhiBHqFqVTl0LIPG0b-115" value="원래 속도로 되돌린다" style="rounded=1;whiteSpace=wrap;html=1;" vertex="1" parent="WIyWlLk6GJQsqaUBKTNV-1">
          <mxGeometry x="1122.47" y="1010" width="120" height="20" as="geometry" />
        </mxCell>
        <mxCell id="CDUhiBHqFqVTl0LIPG0b-118" value="Yes" style="edgeStyle=orthogonalEdgeStyle;rounded=0;orthogonalLoop=1;jettySize=auto;html=1;exitX=0.5;exitY=1;exitDx=0;exitDy=0;entryX=0.5;entryY=0;entryDx=0;entryDy=0;" edge="1" parent="WIyWlLk6GJQsqaUBKTNV-1" source="CDUhiBHqFqVTl0LIPG0b-116" target="CDUhiBHqFqVTl0LIPG0b-117">
          <mxGeometry relative="1" as="geometry" />
        </mxCell>
        <mxCell id="CDUhiBHqFqVTl0LIPG0b-116" value="유령과 부딪혔는가?" style="rhombus;whiteSpace=wrap;html=1;" vertex="1" parent="WIyWlLk6GJQsqaUBKTNV-1">
          <mxGeometry x="1219.97" y="824" width="140" height="80" as="geometry" />
        </mxCell>
        <mxCell id="CDUhiBHqFqVTl0LIPG0b-117" value="맵에서 나가고&lt;br&gt;실패화면이 뜬다" style="shape=document;whiteSpace=wrap;html=1;boundedLbl=1;" vertex="1" parent="WIyWlLk6GJQsqaUBKTNV-1">
          <mxGeometry x="1229.97" y="924" width="120" height="80" as="geometry" />
        </mxCell>
        <mxCell id="CDUhiBHqFqVTl0LIPG0b-120" value="no" style="edgeStyle=orthogonalEdgeStyle;rounded=0;orthogonalLoop=1;jettySize=auto;html=1;entryX=0.42;entryY=-0.024;entryDx=0;entryDy=0;entryPerimeter=0;" edge="1" parent="WIyWlLk6GJQsqaUBKTNV-1" source="CDUhiBHqFqVTl0LIPG0b-116" target="CDUhiBHqFqVTl0LIPG0b-100">
          <mxGeometry x="-0.8794" relative="1" as="geometry">
            <Array as="points">
              <mxPoint x="1209.97" y="904" />
              <mxPoint x="1209.97" y="744" />
              <mxPoint x="1016.97" y="744" />
            </Array>
            <mxPoint as="offset" />
          </mxGeometry>
        </mxCell>
      </root>
    </mxGraphModel>
  </diagram>
</mxfile>
